<svg width="100%" height="100%" id="svg" viewBox="0 0 1440 690" xmlns="http://www.w3.org/2000/svg" class="transition duration-300 ease-in-out delay-150"><defs><linearGradient id="gradient" x1="0%" y1="50%" x2="100%" y2="50%"><stop offset="5%" stop-color="#6c6caa"></stop><stop offset="95%" stop-color="#e4e448"></stop></linearGradient></defs><path d="M 0,700 L 0,175 C 56.62076583210603,164.94734904270987 113.24153166421206,154.89469808541975 170,157 C 226.75846833578794,159.10530191458025 283.6546391752578,173.36855670103094 339,190 C 394.3453608247422,206.63144329896906 448.1399116347569,225.63107511045658 522,232 C 595.8600883652431,238.36892488954342 689.7857142857142,232.1071428571429 745,232 C 800.2142857142858,231.8928571428571 816.7172312223859,237.940353460972 877,246 C 937.2827687776141,254.059646539028 1041.3453608247423,264.1314432989691 1110,239 C 1178.6546391752577,213.86855670103094 1211.9013254786453,153.5338733431517 1261,137 C 1310.0986745213547,120.4661266568483 1375.0493372606775,147.73306332842415 1440,175 L 1440,700 L 0,700 Z" stroke="none" stroke-width="0" fill="url(#gradient)" fill-opacity="0.53" class="transition-all duration-300 ease-in-out delay-150 path-0"></path><defs><linearGradient id="gradient" x1="0%" y1="50%" x2="100%" y2="50%"><stop offset="5%" stop-color="#6c6caa"></stop><stop offset="95%" stop-color="#e4e448"></stop></linearGradient></defs><path d="M 0,700 L 0,408 C 73.31038291605302,372.1343888070692 146.62076583210603,336.2687776141384 210,356 C 273.37923416789397,375.7312223858616 326.82731958762884,451.05927835051557 376,470 C 425.17268041237116,488.94072164948443 470.0699558173785,451.49410898379966 519,439 C 567.9300441826215,426.50589101620034 620.8928571428571,438.9642857142857 688,418 C 755.1071428571429,397.0357142857143 836.358615611193,342.64874815905745 907,340 C 977.641384388807,337.35125184094255 1037.672680412371,386.44072164948454 1086,395 C 1134.327319587629,403.55927835051546 1170.9506627393228,371.58836524300443 1228,367 C 1285.0493372606772,362.41163475699557 1362.5246686303385,385.2058173784978 1440,408 L 1440,700 L 0,700 Z" stroke="none" stroke-width="0" fill="url(#gradient)" fill-opacity="1" class="transition-all duration-300 ease-in-out delay-150 path-1"></path></svg>
